# xmcd
#
# Track frame offsets:
#  150
#  23472
#  45765
#  68207
#  94818
#  113655
#  144797
#  164027
#  201921
#  223668
#
# Disc length: 3317 seconds
#
# Revision: 0
# Processed by: cddbd v1.5.1PL2 Copyright (c) Steve Scherf et al.
# Submitted via: Collectorz.com_Music_Collector 6.10
#
DISCID=810cf30a
DTITLE=Flyers, The - Ascend
DYEAR=2006
DGENRE=Blues
TTITLE0=Ordinary Day
TTITLE1=Nightshift
TTITLE2=Along Loves Edge
TTITLE3=(Can't) Stop Loving You
TTITLE4=Heartland
TTITLE5=Howl At The Moon
TTITLE6=Tumbleweed
TTITLE7=State Of Mind
TTITLE8=Empty Years
TTITLE9=The Years Inside
EXTD=
EXTT0=
EXTT1=
EXTT2=
EXTT3=
EXTT4=
EXTT5=
EXTT6=
EXTT7=
EXTT8=
EXTT9=
PLAYORDER=
